<svg width="57" height="51" viewBox="0 0 57 51" fill="none" xmlns="http://www.w3.org/2000/svg">
<path d="M20.5362 12.0955C20.8275 11.1439 22.1776 11.1521 22.4532 12.1071L26.0593 24.6004C26.1535 24.9264 26.4067 25.182 26.7318 25.2792L39.2511 29.023C40.208 29.3091 40.1969 30.6679 39.2354 30.9426L26.6561 34.5355C26.3294 34.6288 26.072 34.8813 25.9726 35.2062L22.1625 47.6549C21.8713 48.6065 20.5212 48.5984 20.2455 47.6434L16.6394 35.1501C16.5453 34.8241 16.2921 34.5684 15.967 34.4712L3.44767 30.7275C2.49075 30.4414 2.50186 29.0825 3.46337 28.8079L16.0427 25.215C16.3693 25.1217 16.6267 24.8691 16.7261 24.5443L20.5362 12.0955Z" fill="#7408FE"/>
<path d="M41.2155 2.70504C41.5324 1.83433 42.7581 1.81875 43.0888 2.68124L45.6804 9.4397C45.793 9.73316 46.0373 9.95585 46.34 10.0408L53.6245 12.0843C54.584 12.3535 54.5949 13.7095 53.6398 14.0031L46.3895 16.2313C46.0882 16.3239 45.8475 16.5528 45.7397 16.849L43.2566 23.672C42.9397 24.5427 41.714 24.5583 41.3833 23.6958L38.7917 16.9373C38.6791 16.6439 38.4348 16.4212 38.1321 16.3363L30.8476 14.2927C29.8881 14.0236 29.8772 12.6675 30.8323 12.374L38.0826 10.1457C38.3839 10.0531 38.6246 9.82427 38.7324 9.52801L41.2155 2.70504Z" fill="#7408FE"/>
</svg>
