<svg width="26" height="26" viewBox="0 0 26 26" fill="none" xmlns="http://www.w3.org/2000/svg">
<path d="M14.4036 0.653152C13.908 0.23263 13.2653 0 12.5991 0C11.9329 0 11.2902 0.23263 10.7946 0.653152L0.8946 9.05455C0.613121 9.29362 0.388016 9.58591 0.233896 9.91246C0.0797762 10.239 8.66841e-05 10.5925 0 10.9501V22.9436C0 23.6199 0.284464 24.2685 0.790812 24.7467C1.29716 25.2249 1.98392 25.4936 2.7 25.4936H6.3C7.01608 25.4936 7.70284 25.2249 8.20919 24.7467C8.71554 24.2685 9 23.6199 9 22.9436V16.1436C9 15.9181 9.09482 15.7019 9.2636 15.5425C9.43239 15.3831 9.66131 15.2936 9.9 15.2936H15.3C15.5387 15.2936 15.7676 15.3831 15.9364 15.5425C16.1052 15.7019 16.2 15.9181 16.2 16.1436V22.9436C16.2 23.6199 16.4845 24.2685 16.9908 24.7467C17.4972 25.2249 18.1839 25.4936 18.9 25.4936H22.5C23.2161 25.4936 23.9028 25.2249 24.4092 24.7467C24.9155 24.2685 25.2 23.6199 25.2 22.9436V10.9501C25.1999 10.5925 25.1202 10.239 24.9661 9.91246C24.812 9.58591 24.5869 9.29362 24.3054 9.05455L14.4054 0.653152H14.4036Z" fill="#7408FE"/>
</svg>
