<svg width="24" height="25" viewBox="0 0 24 25" fill="none" xmlns="http://www.w3.org/2000/svg">
<path d="M21.625 5.91011C22.0451 6.1349 22.3939 6.46094 22.6355 6.85469C22.8772 7.24844 23.003 7.69567 23 8.15035V16.5271C23 17.4575 22.4585 18.3154 21.5847 18.7673L13.3347 23.6779C12.9257 23.8892 12.4666 24 12 24C11.5334 24 11.0743 23.8892 10.6653 23.6779L2.41533 18.7673C1.98776 18.5475 1.63082 18.2236 1.38184 17.8295C1.13285 17.4354 1.00098 16.9856 1 16.5271V8.1492C1 7.21884 1.54144 6.36207 2.41533 5.91011L10.6653 1.33303C11.0864 1.11457 11.5595 1 12.0403 1C12.5212 1 12.9942 1.11457 13.4153 1.33303L21.6653 5.91011H21.625Z" stroke="black" stroke-width="2" stroke-linecap="round" stroke-linejoin="round"/>
<path d="M8.33301 12.4996C8.33301 13.4146 8.71932 14.2922 9.40695 14.9392C10.0946 15.5862 11.0272 15.9497 11.9997 15.9497C12.9721 15.9497 13.9048 15.5862 14.5924 14.9392C15.28 14.2922 15.6663 13.4146 15.6663 12.4996C15.6663 11.5846 15.28 10.7071 14.5924 10.0601C13.9048 9.41305 12.9721 9.04956 11.9997 9.04956C11.0272 9.04956 10.0946 9.41305 9.40695 10.0601C8.71932 10.7071 8.33301 11.5846 8.33301 12.4996Z" stroke="black" stroke-width="2" stroke-linecap="round" stroke-linejoin="round"/>
</svg>
