<svg width="18" height="19" viewBox="0 0 18 19" fill="none" xmlns="http://www.w3.org/2000/svg">
<path d="M11.052 0.329773C10.8984 0.207498 10.7214 0.116112 10.5313 0.0609062C10.3412 0.00569993 10.1418 -0.0122305 9.94454 0.00815265C9.74728 0.0285358 9.55613 0.0868278 9.38216 0.179654C9.20818 0.272481 9.05484 0.397998 8.931 0.548941L4.587 5.84989H6.507L10.1025 1.46068L11.2575 2.37973L8.3625 5.84989H10.2945L12.42 3.3017L14.997 5.35165L14.55 5.84989H15C15.4473 5.84944 15.8922 5.91395 16.32 6.0413C16.4834 5.74269 16.5354 5.39809 16.467 5.06633C16.3986 4.73457 16.2141 4.43622 15.945 4.2222L11.052 0.329773ZM1.5 6.58046C1.5 6.3867 1.57902 6.20088 1.71967 6.06387C1.86032 5.92686 2.05109 5.84989 2.25 5.84989H3.087L4.2795 4.38877H2.25C1.65326 4.38877 1.08097 4.61968 0.65901 5.0307C0.237053 5.44172 0 5.99919 0 6.58046V15.3472C0 16.316 0.395088 17.2451 1.09835 17.9301C1.80161 18.6152 2.75544 19 3.75 19H15C15.7956 19 16.5587 18.6921 17.1213 18.1441C17.6839 17.5961 18 16.8528 18 16.0778V10.2333C18 9.45824 17.6839 8.71495 17.1213 8.16692C16.5587 7.6189 15.7956 7.31102 15 7.31102H2.25C2.05109 7.31102 1.86032 7.23405 1.71967 7.09704C1.57902 6.96003 1.5 6.77421 1.5 6.58046ZM12.75 13.1555H14.25C14.4489 13.1555 14.6397 13.2325 14.7803 13.3695C14.921 13.5065 15 13.6923 15 13.8861C15 14.0798 14.921 14.2656 14.7803 14.4027C14.6397 14.5397 14.4489 14.6166 14.25 14.6166H12.75C12.5511 14.6166 12.3603 14.5397 12.2197 14.4027C12.079 14.2656 12 14.0798 12 13.8861C12 13.6923 12.079 13.5065 12.2197 13.3695C12.3603 13.2325 12.5511 13.1555 12.75 13.1555Z" fill="#7408FE"/>
</svg>
